<svg width="18" height="18" viewBox="0 0 18 18" fill="none" xmlns="http://www.w3.org/2000/svg">
<path d="M18 3H0V15.0001H18V3Z" fill="#F0F0F0"/>
<path d="M10.125 3H7.875V7.87498H0V10.125H7.875V15H10.125V10.125H18V7.87498H10.125V3Z" fill="#D80027"/>
<path d="M13.844 11.0869L18 13.3958V11.0869H13.844Z" fill="#0052B4"/>
<path d="M10.9565 11.0869L18 14.9999V13.8934L12.9483 11.0869H10.9565Z" fill="#0052B4"/>
<path d="M16.1239 14.9999L10.9565 12.1289V14.9999H16.1239Z" fill="#0052B4"/>
<path d="M10.9565 11.0869L18 14.9999V13.8934L12.9483 11.0869H10.9565Z" fill="#F0F0F0"/>
<path d="M10.9565 11.0869L18 14.9999V13.8934L12.9483 11.0869H10.9565Z" fill="#D80027"/>
<path d="M3.17605 11.0869L0 12.8514V11.0869H3.17605Z" fill="#0052B4"/>
<path d="M7.0435 11.585V15.0004H0.896179L7.0435 11.585Z" fill="#0052B4"/>
<path d="M5.05171 11.0869L0 13.8934V14.9999L7.04348 11.0869H5.05171Z" fill="#D80027"/>
<path d="M4.156 6.91342L0 4.60449V6.91342H4.156Z" fill="#0052B4"/>
<path d="M7.04348 6.91303L0 3V4.10651L5.05171 6.91303H7.04348Z" fill="#0052B4"/>
<path d="M1.87616 3L7.0435 5.871V3H1.87616Z" fill="#0052B4"/>
<path d="M7.04348 6.91303L0 3V4.10651L5.05171 6.91303H7.04348Z" fill="#F0F0F0"/>
<path d="M7.04348 6.91303L0 3V4.10651L5.05171 6.91303H7.04348Z" fill="#D80027"/>
<path d="M14.8239 6.91293L18 5.14844V6.91293H14.8239Z" fill="#0052B4"/>
<path d="M10.9565 6.41546V3H17.1038L10.9565 6.41546Z" fill="#0052B4"/>
<path d="M12.9483 6.91303L18 4.10651V3L10.9565 6.91303H12.9483Z" fill="#D80027"/>
</svg>
