<?xml version="1.0" encoding="UTF-8"?><svg xmlns="http://www.w3.org/2000/svg" viewBox="0 0 110 26"><defs><style>.d{fill:none;}.e{fill:#f98924;}.f{fill:#fdbb0f;}.g{fill:#d7732a;}.h{fill:#212529;}</style></defs><g id="a"/><g id="b"><g id="c"><g><rect class="d" width="110" height="26"/><g><g><polygon class="f" points="31.32 3.61 17.47 22.53 19.71 25.58 35.93 3.61 31.32 3.61"/><polygon class="f" points="5.56 .22 1.04 .22 19.71 25.58 21.97 22.51 5.56 .22"/><polyline class="e" points="22.25 15.93 13.13 3.55 19.28 3.55 22.27 .22 5.55 .22 19.71 19.46"/><polygon class="g" points="17.77 9.9 12.69 9.9 19.71 19.45 22.25 15.91 17.77 9.9"/><polygon class="e" points="10.32 6.68 24.26 6.68 21.89 9.9 17.77 9.9 12.69 9.9 10.32 6.68"/><polygon class="g" points="13.1 3.52 8.01 3.52 10.32 6.68 15.45 6.68 13.1 3.52"/><polygon class="f" points="22.25 .22 22.25 .22 19.28 3.53 22.25 .22"/></g><path class="h" d="M47.16,11.59L50.98,.22h-2.59l-2.6,8.92h-.06L43.13,.22h-2.66l3.82,11.37h2.87Zm7.11,0V.22h-2.38V11.59h2.38Zm8.89-1.97h-5.15v-2.87h4.86v-1.83h-4.86V2.18h5.15V.22h-7.53V11.59h7.53v-1.97Zm6.56,1.97V2.18h3.29V.22h-8.96v1.96h3.29V11.59h2.38Zm6.35,0V4.15h.07l5.32,7.45h1.97V.22h-2.28V7.63h-.06L75.77,.22h-1.99V11.59h2.28Zm16.17,0h2.53L90.8,.22h-2.8l-3.95,11.37h2.44l.87-2.76h4l.87,2.76Zm-3.17-9.2h.06l1.46,4.66h-2.97l1.46-4.66Zm18.37,9.2V.22h-2.76l-3.23,8.06h-.06L98.15,.22h-2.76V11.59h2.12V3.92h.06l3.09,7.57h1.5l3.09-7.57h.06v7.68h2.12Zm-63.58,13.99v-4.48h4.63v-1.88h-4.63v-3.05h5.07v-1.96h-7.45v11.37h2.38Zm12.6,0h2.53l-3.96-11.37h-2.8l-3.95,11.37h2.44l.87-2.76h4l.87,2.76Zm-2.89-9.2h.06l1.46,4.66h-2.97l1.46-4.66Zm10.53,9.39c2.79,0,4.74-1.61,5-4.15h-2.32c-.25,1.35-1.27,2.17-2.68,2.17-1.82,0-2.96-1.5-2.96-3.92s1.16-3.9,2.96-3.9c1.39,0,2.46,.91,2.68,2.31h2.32c-.18-2.55-2.26-4.28-5-4.28-3.29,0-5.38,2.21-5.38,5.88s2.07,5.89,5.38,5.89Zm10.68-.2v-9.41h3.29v-1.96h-8.96v1.96h3.29v9.41h2.38Zm8.57-11.57c-3.37,0-5.48,2.26-5.48,5.89s2.11,5.88,5.48,5.88,5.48-2.26,5.48-5.88-2.12-5.89-5.48-5.89Zm0,1.99c1.86,0,3.05,1.51,3.05,3.9s-1.19,3.89-3.05,3.89-3.06-1.51-3.06-3.89,1.2-3.9,3.06-3.9Zm8.86,.07h2.03c1.18,0,1.92,.71,1.92,1.81s-.7,1.81-1.9,1.81h-2.05v-3.62Zm0,5.35h1.91l2.12,4.16h2.7l-2.4-4.52c1.31-.51,2.06-1.77,2.06-3.23,0-2.25-1.5-3.62-4.11-3.62h-4.66v11.37h2.38v-4.16Zm12.8,4.16v-4.25l3.96-7.12h-2.55l-2.55,4.85h-.06l-2.55-4.85h-2.59l3.96,7.12v4.25h2.38Z"/></g></g></g></g></svg>